<svg width="26" height="32" viewBox="0 0 26 32" fill="none" xmlns="http://www.w3.org/2000/svg">
<path fill-rule="evenodd" clip-rule="evenodd" d="M13 0.25C20.0373 0.25 25.75 5.96275 25.75 13C25.75 16.6645 23.9215 20.4363 21.6258 23.6035C18.4203 28.027 14.4115 31.252 14.4115 31.252V31.2528C14.0114 31.5745 13.5134 31.7499 13 31.7499C12.4866 31.7499 11.9886 31.5745 11.5885 31.2528V31.252C11.5885 31.252 7.57975 28.027 4.37425 23.6035C2.0785 20.4363 0.25 16.6645 0.25 13C0.25 5.96275 5.96275 0.25 13 0.25ZM13 7.75C15.8973 7.75 18.25 10.1028 18.25 13C18.25 15.8973 15.8973 18.25 13 18.25C10.1028 18.25 7.75 15.8973 7.75 13C7.75 10.1028 10.1028 7.75 13 7.75Z" fill="white"/>
</svg>
