<svg width="17" height="12" viewBox="0 0 17 12" fill="none" xmlns="http://www.w3.org/2000/svg">
<path d="M16.0001 9.15128L15.0786 9.61206C14.8018 9.74966 14.5778 9.97366 14.4402 10.2504L13.9794 11.172C13.9138 11.3048 13.725 11.3048 13.6594 11.172L13.1986 10.2504C13.061 9.97366 12.837 9.74966 12.5602 9.61206L11.6387 9.15128C11.5059 9.08567 11.5059 8.89688 11.6387 8.83128L12.5602 8.3705C12.837 8.2329 13.061 8.0089 13.1986 7.73211L13.6594 6.81054C13.725 6.67774 13.9138 6.67774 13.9794 6.81054L14.4402 7.73211C14.5778 8.0089 14.8018 8.2329 15.0786 8.3705L16.0001 8.83128C16.1329 8.89688 16.1329 9.08567 16.0001 9.15128Z" fill="white"/>
<path d="M11.3097 6.37233L9.15937 7.44751C8.51458 7.77071 7.9914 8.29389 7.66821 8.93867L6.59304 11.089C6.43944 11.3962 6.00105 11.3962 5.84746 11.089L4.77229 8.93867C4.44909 8.29389 3.9259 7.77071 3.28113 7.44751L1.13078 6.37233C0.823593 6.21875 0.823593 5.78036 1.13078 5.62676L3.28113 4.55159C3.9259 4.2284 4.44909 3.70521 4.77229 3.06043L5.84746 0.910087C6.00105 0.602888 6.43944 0.602888 6.59304 0.910087L7.66821 3.06043C7.9914 3.70521 8.51458 4.2284 9.15937 4.55159L11.3097 5.62676C11.6169 5.78036 11.6169 6.21875 11.3097 6.37233Z" fill="white"/>
<path d="M11.6156 1.83301L12.0711 1.6053C12.2078 1.5373 12.3185 1.4266 12.3865 1.28981L12.6143 0.834378C12.6467 0.768749 12.74 0.768749 12.7724 0.834378L13.0001 1.28981C13.0681 1.4266 13.1788 1.5373 13.3156 1.6053L13.771 1.83301C13.8367 1.86543 13.8367 1.95873 13.771 1.99115L13.3156 2.21887C13.1788 2.28687 13.0681 2.39757 13.0001 2.53435L12.7724 2.98979C12.74 3.05463 12.6467 3.05463 12.6143 2.98979L12.3865 2.53435C12.3185 2.39757 12.2078 2.28687 12.0711 2.21887L11.6156 1.99115C11.55 1.95873 11.55 1.86543 11.6156 1.83301Z" fill="white"/>
</svg>
